HIERARCHY
ROOT Hips
{
     OFFSET 1.88212 96.90440 -13.34250
     CHANNELS 6 Xposition Yposition Zposition Zrotation Xrotation Yrotation
     JOINT Spine
     {
          OFFSET 0.00000 11.89050 0.00000
          CHANNELS 3 Zrotation Xrotation Yrotation
          JOINT Spine1
          {
               OFFSET -0.00000 25.65740 0.12766
               CHANNELS 3 Zrotation Xrotation Yrotation
               JOINT HEad
               {
                    OFFSET 0.00000 8.73416 0.01134
                    CHANNELS 3 Zrotation Xrotation Yrotation
                    End Site
                    {
                         OFFSET -0.29000 12.77420 2.51395
                    }
               }
               JOINT LeftShoulder1
               {
                    OFFSET 8.99000 -0.36225 -0.22000
                    CHANNELS 3 Zrotation Xrotation Yrotation
                    JOINT LeftArm
                    {
                         OFFSET 10.28270 -0.00338 0.32212
                         CHANNELS 3 Zrotation Xrotation Yrotation
                         JOINT LeftForeArm
                         {
                              OFFSET 32.76690 0.09914 -1.42434
                              CHANNELS 3 Zrotation Xrotation Yrotation
                              JOINT LeftHand
                              {
                                   OFFSET 27.56430 0.08536 1.02216
                                   CHANNELS 3 Zrotation Xrotation Yrotation
                                   End Site
                                   {
                                        OFFSET 16.74430 -0.60000 1.50291
                                   }
                              }
                         }
                    }
               }
               JOINT RightShoulder
               {
                    OFFSET -8.99000 -0.36225 -0.22000
                    CHANNELS 3 Zrotation Xrotation Yrotation
                    JOINT RightArm
                    {
                         OFFSET -10.28270 -0.00338 0.32212
                         CHANNELS 3 Zrotation Xrotation Yrotation
                         JOINT RightForeArm
                         {
                              OFFSET -32.89710 0.09914 -1.42434
                              CHANNELS 3 Zrotation Xrotation Yrotation
                              JOINT RightHand
                              {
                                   OFFSET -27.49210 0.08536 1.02216
                                   CHANNELS 3 Zrotation Xrotation Yrotation
                                   End Site
                                   {
                                        OFFSET -16.63120 -0.60000 1.50291
                                   }
                              }
                         }
                    }
               }
          }
     }
     JOINT LeftUpLeg
     {
          OFFSET 8.94580 -8.66707 0.10165
          CHANNELS 3 Zrotation Xrotation Yrotation
          JOINT LeftLeg
          {
               OFFSET 0.00000 -44.42270 1.37270
               CHANNELS 3 Zrotation Xrotation Yrotation
               JOINT LeftFoot
               {
                    OFFSET -0.25355 -42.09240 -1.46059
                    CHANNELS 3 Zrotation Xrotation Yrotation
                    JOINT LeftToes
                    {
                         OFFSET -0.04000 -4.41509 8.49910
                         CHANNELS 3 Zrotation Xrotation Yrotation
                         End Site
                         {
                              OFFSET 0.08000 -0.04745 9.77979
                         }
                    }
               }
          }
     }
     JOINT RightUpLeg
     {
          OFFSET -8.94580 -8.66707 0.10165
          CHANNELS 3 Zrotation Xrotation Yrotation
          JOINT RightLeg
          {
               OFFSET 0.00000 -44.42270 1.37270
               CHANNELS 3 Zrotation Xrotation Yrotation
               JOINT RightFoot
               {
                    OFFSET 0.25355 -42.09240 -1.46059
                    CHANNELS 3 Zrotation Xrotation Yrotation
                    JOINT RightToes
                    {
                         OFFSET 0.04000 -4.41509 8.49910
                         CHANNELS 3 Zrotation Xrotation Yrotation
                         End Site
                         {
                              OFFSET -0.08000 -0.13745 9.77979
                         }
                    }
               }
          }
     }
}
MOTION
Frames: 17
Frame Time: 0.01667
18.28981 59.96352 -118.34914 4.25970 -6.60093 15.61327 -17.52889 38.55084 9.71243 0.02325 0.11536 -0.01170 5.25105 -4.30363 -9.06909 2.55984 6.23200 -4.28227 -77.60144 -9.04511 -107.24596 3.09689 37.59573 -98.46833 36.96543 -0.80127 -16.14554 29.74079 12.29229 0.35359 44.82479 -19.21510 68.93123 1.78354 31.52264 125.61250 -43.24224 13.81753 -5.62668 27.33093 -60.75942 20.25946 96.82104 85.87511 -99.61630 45.54038 -0.00075 -0.01104 -65.74937 -1.96214 -4.13330 -26.09688 -31.94468 -23.09006 -110.80870 60.54675 80.70354 3.27803 -0.17930 0.28389 -14.89968 -49.42316 -1.89981 
16.93579 58.31969 -118.82027 4.14190 -8.08151 17.81466 -14.68934 41.51154 7.48144 0.00077 0.01244 -0.00764 4.29906 -5.89755 -9.27535 1.77412 6.51279 -4.00895 -78.37543 -10.95903 -108.54689 3.20461 38.48382 -98.47606 37.70684 -1.67130 -16.14264 28.11917 12.02866 1.00746 45.75053 -20.32419 68.75293 4.43150 35.36973 123.34895 -45.26643 14.79749 -3.23051 27.12293 -62.55424 18.77736 113.17717 84.41524 -117.83681 46.92573 -0.00267 -0.01342 -67.21627 -1.90082 -3.02482 -27.96832 -32.37461 -20.72511 -110.69946 62.22442 82.14162 -2.49167 -0.14094 0.24233 -3.79484 -41.45357 1.46515 
15.51574 56.54042 -119.38278 4.17272 -9.27811 19.58200 -11.80671 43.57064 5.24050 0.00103 0.01146 -0.00358 3.21575 -7.17773 -9.35009 0.83589 6.99004 -3.57533 -79.11977 -12.29491 -109.59223 3.14034 39.13572 -98.64753 38.26178 -1.68873 -16.15501 26.48303 12.10425 1.85397 46.45856 -21.53430 68.44199 6.34129 37.81023 121.75114 -45.94452 15.11042 -2.07108 27.08964 -64.37057 17.80219 121.10053 83.00439 -127.40108 48.27376 -0.00523 -0.01484 -68.18704 -1.71462 -1.86303 -28.69908 -32.74355 -16.55209 -112.10185 65.04977 86.55339 -8.29922 -0.03693 0.20787 -15.98087 -53.95181 -5.58811 
14.15694 54.83368 -119.98547 4.31551 -10.20865 20.97379 -8.97968 44.86884 3.07255 0.00088 0.01566 -0.00163 2.03534 -8.12410 -9.30223 -0.25000 7.67959 -3.28342 -81.04137 -16.74995 -109.95985 0.17752 39.74779 -99.79047 38.77391 -1.52952 -16.12040 24.83312 12.43606 2.66265 46.98753 -22.55951 68.09183 7.56158 39.30484 120.68733 -46.10398 15.26989 -1.64736 27.33195 -66.12550 17.34912 124.88811 81.76324 -132.66742 49.43418 -0.00674 -0.01385 -69.07897 -1.32359 -0.72602 -28.69275 -33.14236 -10.93846 -114.94264 68.47781 93.84079 -9.10399 -0.06952 0.05202 -7.76750 -45.39174 -4.17575 
12.74807 53.17356 -120.51076 4.54748 -10.90396 22.04924 -6.32707 45.54348 1.07246 -0.00125 0.01950 -0.00037 0.79782 -8.79924 -9.12941 -1.41653 8.50789 -3.07984 -82.39752 -19.30390 -110.32840 -1.11105 40.42811 -100.50099 39.26569 -1.05155 -16.21267 23.13477 12.94906 3.42806 47.39454 -23.35565 67.71884 8.19417 40.15260 120.03979 -45.68042 15.21825 -1.81161 28.03285 -67.72921 17.51554 126.06142 80.65514 -135.25552 50.24419 -0.00600 -0.01050 -69.67365 -0.85493 0.41267 -28.32746 -33.59641 -4.30347 -119.42231 72.18709 103.62270 -6.42742 -0.19752 -0.07792 -14.28396 -43.10673 -10.84898 
10.90747 51.30731 -120.75705 4.89445 -11.40798 22.86895 -3.96857 45.72942 -0.67598 0.00050 0.02227 0.00093 -0.46172 -10.15986 -7.54864 -2.71233 9.32427 -2.99591 -85.60948 -23.95795 -110.16166 -3.90601 42.12094 -102.48464 40.95132 17.88422 -14.16881 21.31106 13.51271 4.28581 47.69760 -23.85764 67.20531 8.22163 40.54366 119.78210 -44.90092 15.17365 -2.34939 30.84022 -68.49321 19.01977 125.18723 80.41541 -136.55341 50.50412 -0.00319 -0.00534 -69.79134 -0.45954 1.60694 -28.08910 -34.24518 2.85162 -134.31392 75.75568 123.05353 2.68619 -0.44740 -0.07077 1.06503 -40.34420 -5.12814 
8.88686 49.54606 -120.76986 5.32938 -11.76202 23.46210 -1.98461 45.54250 -2.09122 -0.00217 0.02415 0.00103 -1.75866 -12.06499 -4.69756 -4.03324 10.18488 -2.93672 -87.71696 -26.48713 -109.97169 -4.58396 43.38626 -103.88407 42.33366 7.98760 -15.65984 19.51452 14.12951 5.04160 47.89185 -24.01244 66.73418 7.82439 40.62032 119.78426 -44.11798 15.09577 -3.13284 35.20964 -68.56686 21.36457 123.35133 80.90186 -137.39969 50.20443 -0.00058 -0.00091 -69.74840 -0.10223 2.63640 -27.34026 -35.55726 9.85834 -158.02342 76.49524 149.78464 7.47234 -0.26948 0.01053 -10.13219 -41.86926 -10.71669 
6.63017 47.88451 -120.52138 5.83621 -12.00687 23.85755 -0.41793 45.08030 -3.11736 -0.00432 0.02517 0.00126 -2.95625 -13.56877 -2.04668 -5.42987 11.07912 -2.65973 -89.05988 -27.67167 -109.45715 -0.38862 42.03887 -103.84555 41.08003 8.68214 -15.95393 17.83577 14.77280 5.67373 47.96952 -23.83329 66.36057 7.14158 40.47013 119.87774 -43.26067 15.02401 -4.03584 40.35633 -68.04682 23.83879 120.77301 82.04693 -137.77946 49.36677 0.00119 0.00199 -69.33320 0.16353 3.58796 -26.22484 -37.33357 16.60581 -178.63586 74.16417 172.58731 13.65320 -0.24316 0.05991 10.67997 -43.71994 1.88283 
3.88161 46.22897 -119.92334 6.43451 -12.17356 24.10083 0.78700 44.41210 -3.78194 0.00137 0.02452 0.00128 -4.53470 -15.31580 1.69893 -6.57915 11.87974 -2.30513 -93.36521 -31.00928 -108.58440 0.40311 43.10643 -106.70053 41.46425 0.40967 -17.63228 16.46306 15.35246 5.80896 46.65847 -19.91311 68.15053 5.45421 37.70960 117.49310 -42.27552 15.03808 -4.97909 45.09631 -67.07759 25.39438 106.74747 82.64481 -126.50298 46.28170 0.01200 0.00921 -68.21626 0.59651 4.20953 -25.74968 -39.06638 21.82083 -189.50282 70.63086 185.61375 19.37456 -0.19659 0.08504 -0.02097 -46.20036 -1.41372 
0.95405 44.68742 -119.13440 7.09394 -12.28890 24.22135 1.68045 43.59279 -4.11180 0.00354 0.02509 0.00051 -5.99938 -16.63452 5.09782 -7.54982 12.72700 -1.96378 -96.38888 -32.78885 -107.65666 1.31630 43.94389 -109.00959 41.28868 2.28293 -17.14857 15.31903 15.98825 5.58117 44.08043 -14.16296 71.18088 3.21717 33.39565 113.95712 -41.44574 15.20481 -6.18279 48.45549 -65.82378 25.19583 84.93062 82.51344 -106.73194 41.71994 0.02296 0.01180 -66.76088 1.21790 4.56720 -25.59318 -40.90064 25.54629 -194.33981 66.84654 192.32961 23.18030 -0.16045 0.07165 1.26182 -47.09935 1.79163 
-2.12534 43.26263 -118.20053 7.81272 -12.36327 24.24891 2.26449 42.67215 -4.11752 0.00015 0.02752 0.00154 -7.36403 -17.55658 8.15479 -8.38757 13.61689 -1.59518 -98.59786 -33.81836 -106.59018 1.88564 44.48539 -110.80319 41.91669 -1.61948 -18.24354 14.27967 16.65002 5.44306 42.08528 -10.87495 72.42181 1.54159 30.71634 112.68304 -40.53789 15.27268 -7.38539 50.56945 -64.28698 23.50525 62.70519 82.69203 -86.05817 37.65196 0.01288 0.01046 -64.80031 1.81027 4.94819 -25.58483 -42.86788 27.89746 -195.89430 63.20063 195.40625 26.18632 -0.14818 0.06920 -1.58945 -48.94294 2.78574 
-5.55771 42.08557 -117.07585 8.63245 -12.39597 24.22241 2.56443 41.68677 -3.85005 -0.00235 0.02773 0.00179 -9.52898 -18.25250 12.01059 -8.82474 14.43021 -1.41561 -103.94885 -37.19399 -105.50682 0.68792 46.78920 -114.54384 42.10582 0.11653 -17.80416 13.32728 17.26221 5.37002 40.60932 -8.83577 72.62858 0.33538 29.13154 112.43166 -39.45472 14.99576 -8.46293 51.76980 -62.31208 20.79660 37.67305 81.88533 -62.20226 33.38092 0.01059 0.00921 -62.46910 3.20931 5.95027 -25.45889 -44.92133 29.09915 -195.85147 59.73071 196.24142 28.63351 -0.14311 0.06540 -1.58402 -50.08281 6.16441 
-8.98253 41.14595 -115.89272 9.52507 -12.39880 24.16755 2.61977 40.65526 -3.34559 -0.00639 0.02871 0.00073 -11.51798 -18.61784 15.45843 -9.18003 15.27296 -1.29385 -107.54354 -39.20121 -104.41221 -0.11541 48.23777 -116.51302 42.45173 -1.84545 -18.82099 12.52348 17.91001 5.24446 39.51857 -7.44899 72.41077 -0.56187 28.31253 112.54305 -38.61961 14.88682 -9.34784 52.26648 -59.85240 17.38190 17.50812 79.43988 -42.80124 28.72519 0.01212 0.01132 -59.98294 4.81741 7.18556 -25.54546 -46.97552 29.00662 -196.82321 56.02776 198.75703 28.32962 -0.15374 0.02663 -3.40912 -52.15900 6.74483 
-12.38068 40.48864 -114.65987 10.48683 -12.36725 24.11324 2.44428 39.58146 -2.63586 -0.00911 0.02944 -0.00044 -13.34579 -18.65763 18.52315 -9.52919 16.14226 -1.16926 -109.79964 -40.41628 -103.09200 -0.79154 49.04457 -117.35030 42.48597 -0.79070 -18.85947 11.90428 18.58530 5.06119 38.65203 -6.39594 72.04556 -1.24619 27.99190 112.69224 -37.85795 14.58125 -9.96171 52.19544 -56.92161 13.55005 5.16079 75.59109 -30.72291 23.72306 0.01565 0.01682 -50.45720 16.25169 20.06041 -25.88371 -48.86141 27.70445 -196.07982 53.30059 198.46210 28.50417 -0.15285 0.03150 -4.30779 -53.22421 8.64934 
-15.98531 40.29656 -113.33995 11.53915 -12.27268 24.13427 2.05544 38.43861 -1.75666 -0.00959 0.02844 -0.00081 -16.04029 -18.21484 22.15358 -10.01858 16.93197 -0.83700 -110.81107 -41.03962 -100.96721 -3.20621 46.41766 -112.70401 39.21676 -3.93260 -22.88877 11.47972 19.21008 4.91208 37.75633 -5.61716 71.56300 -1.57849 27.76756 112.77133 -21.30222 3.97629 -6.00084 51.61209 -53.41727 9.62771 -1.23450 69.38168 -22.57276 17.89910 0.11679 0.04227 -52.18158 15.09510 15.35947 -26.14412 -50.38575 25.54874 -194.97894 51.38422 196.52403 28.87190 -0.14715 0.03403 17.34358 -51.02543 39.77092 
-19.48565 40.32285 -112.07350 12.63978 -12.10612 24.25818 1.50505 37.21847 -0.75042 -0.01062 0.03044 -0.00186 -18.43265 -17.54790 25.35278 -10.38985 17.78531 -0.58385 -111.23000 -41.35378 -98.53812 -4.00588 45.06677 -111.10516 37.49046 -4.25699 -24.63581 11.27090 19.87099 4.62403 36.79718 -5.02529 71.18431 -1.64697 27.57393 112.73377 -30.39286 7.55801 -9.07355 50.67842 -49.37164 6.01650 -4.25678 62.01482 -15.83949 12.06641 0.19805 0.07807 -51.24717 35.84904 30.04313 -26.26338 -51.49174 22.70922 -193.82594 50.24591 193.43169 28.56419 -0.14220 0.03431 4.15561 -52.85898 25.63966 
-22.87709 40.58556 -110.86411 13.77365 -11.85910 24.48934 0.79674 35.92540 0.36826 -0.01173 0.03260 -0.00344 -20.51100 -16.67155 28.14379 -10.52453 18.69350 -0.52847 -111.38223 -41.52601 -96.16029 -4.14503 44.38904 -110.91908 36.97431 -4.91868 -25.78779 11.37715 20.57529 4.14868 35.76832 -4.37244 70.98589 -1.82667 27.58218 112.65182 -24.39559 6.05430 -7.92301 49.38693 -44.92065 3.05596 -4.51498 54.95160 -11.87986 6.27969 0.15894 0.09440 -46.54462 31.62669 21.49867 -26.17792 -52.16767 19.39391 -192.54469 49.84321 189.42128 28.33706 -0.13850 0.04044 8.24099 -51.25337 33.67083 
